<svg version="1.1" id="Слой_1" xmlns="http://www.w3.org/2000/svg" x="0" y="0" viewBox="0 0 3201 3201" style="enable-background:new 0 0 3201 3201" xml:space="preserve"><style>.st0{fill:#c3e678}.st2{fill:#fff}</style><path class="st0" d="M3204 1560v84c-1 2.1-1.5 4.4-1.5 6.8-.1 26-1.9 51.9-3.8 77.8-2.2 29.9-5.4 59.7-9.3 89.4-8 60.5-19.8 120.2-34.9 179.4-13.3 52.3-29.4 103.8-48 154.5-17.9 48.8-38 96.8-60.6 143.6-25.7 53.1-54.1 104.8-85.6 154.7-28.8 45.7-59.7 89.9-92.2 133-1.6 2.1-3.2 4.3-5.8 5.3-.7-2.5-2-4.3-5-3.6-2.6.6-5.1 1.6-7.6 2.3-26.4 8.1-52.6 16.7-79.2 24.1-27.5 7.7-55.3 14.4-83.2 20.6-24.4 5.4-48.9 9.9-73.4 14.1-19.3 3.3-38.7 6.4-58.1 8.9-22.1 2.9-44.2 4.6-66.3 7.4-10.3 1.3-20.6 1-30.8 2.2-21.8 2.4-43.8 3-65.6 3.4-52.2.9-104.4.6-156.6-3.3-19.5-1.5-39.1-2.8-58.5-5-26.4-3-52.7-6.4-78.9-10.8-36.1-6.1-72.1-12.4-107.7-20.7-30.8-7.2-61.4-14.9-91.7-24-15.3-4.6-30.6-9-45.7-14.1-18.6-6.3-37.1-12.6-55.5-19.5-18.4-6.8-36.7-13.8-54.8-21.2-21.5-8.8-42.4-19-63.8-28.3-25.9-11.3-51.1-24-76-37.3-24.3-13-48.5-26.4-72.1-40.7-35.8-21.8-70.9-44.7-105.1-68.9-10-7.1-19-15.7-30.8-20.1 2.2-2.4 4.3-5 6.6-7.3 385.6-385.6 771.1-771.2 1156.7-1156.7 2.8-2.8 5.7-5.6 8.5-8.5 19.8-21.6 30.3-47.2 29.9-76.3-.5-34.4-13.7-63.7-41-85.3-33.2-26.3-70.4-31.6-110.2-17.4-16.3 5.8-29.5 16.3-41.7 28.5-373.2 373.4-746.6 746.7-1119.9 1120-13 13-10.8 12.6-23.6-.2-101.4-101.3-202.7-202.6-304-304.1-6.1-6.1-13.3-11.1-18.2-18.3 2.5-3.9-.1-7-1.8-10.2-8.6-16.9-17.7-33.5-25.9-50.6-9.6-20.1-18.7-40.4-27.7-60.8-8.5-19.5-17.6-38.8-24.6-58.9-11.3-32.3-23.8-64.1-33.8-96.8-10.1-33.1-19.7-66.3-28.1-99.8-6.9-27.7-13.1-55.6-18.1-83.8-4.1-23.6-9.4-47-12.2-70.8-2.5-21.1-5.6-42.1-7.3-63.4-1.9-24.5-5.3-48.9-5.3-73.5 0-2.3.2-4.7-.2-7-3.4-21.1-1.8-42.5-3.3-63.7-1.6-22.2.3-44.5 1.1-66.8.8-21.3 2.5-42.5 3-63.8.2-10.2.9-20.6 2.1-30.8 1.9-15.8 3.5-31.7 5.4-47.5 2.2-17.8 4.2-35.6 7-53.3 2.6-17.1 5.7-34.1 9.1-51 4.9-24.4 9.9-48.9 15.6-73.1 4.2-18.1 9.1-36.1 13.8-54.1 4.9-18.3 10.4-36.4 15.9-54.5 8.2-27 17.7-53.6 27.6-80.1 11.8-31.5 24.2-62.7 38.2-93.2 12.1-26.3 24.7-52.3 37.9-78.1 14.7-28.8 30.4-56.9 46.6-84.8 17.2-29.6 36-58.3 55.5-86.5 15.8-23 32.1-45.8 48.9-68 2.1-2.7 7.1-5.1 4.5-8.9-2.5-3.7-6.9-.3-10 .9-24.9 9.4-50 18.5-74.6 28.6-43.4 17.8-86 37.4-127.7 59.2-9.4 4.9-18.3 10.9-28.9 13.2 1.9-3 5.1-4.1 8-5.7 37.6-20.1 75.9-38.7 114.9-55.8 69-30.3 139.9-55.1 212.4-75.5 35.6-10 71.5-18.3 107.7-25.7 36.5-7.5 73.2-13.7 110.2-18.4 35-4.4 70-8.1 105.3-10.1 2.4-.1 4.7-.3 6.1-2.6h170c10 3.2 20.4 2.5 30.6 3.1 45.2 2.8 90.2 7.8 135 14.4 44.8 6.6 89.2 15.3 133.3 25.7 51.6 12.2 102.3 27.1 152.4 44.5 60.5 21 119.5 45.5 177 73.6 58.7 28.7 115.4 61.1 170.2 96.7 78.4 50.9 151.8 108.3 220.1 172.2 42.6 39.8 83 81.8 121.1 126 46.6 54.1 89.5 111 128.5 170.7 37.4 57.2 70.9 116.7 100.7 178.2 31.4 64.9 58.2 131.6 80.6 200 19.1 58.3 34.6 117.5 46.7 177.7 8.5 42.4 15.4 85.1 20.4 128.1 4.7 40.7 8.3 81.5 9.7 122.4-.1 7.5-1.6 15.9 1.4 24z"/><path d="M1395.6 2353.8c11.8 4.4 20.8 13 30.8 20.1 34.2 24.3 69.3 47.1 105.1 68.9 23.6 14.3 47.8 27.7 72.1 40.7 24.9 13.3 50.1 26.1 76 37.3 21.3 9.3 42.2 19.5 63.8 28.3 18.1 7.4 36.5 14.4 54.8 21.2 18.4 6.8 36.9 13.2 55.5 19.5 15.1 5.1 30.4 9.5 45.7 14.1 30.3 9.1 60.9 16.8 91.7 24 35.6 8.3 71.6 14.6 107.7 20.7 26.2 4.4 52.6 7.8 78.9 10.8 19.4 2.2 39 3.5 58.5 5 52.2 4 104.4 4.3 156.6 3.3 21.9-.4 43.8-1 65.6-3.4 10.2-1.1 20.5-.9 30.8-2.2 22.1-2.8 44.2-4.4 66.3-7.4 19.4-2.6 38.8-5.7 58.1-8.9 24.6-4.1 49.1-8.7 73.4-14.1 27.9-6.2 55.7-12.9 83.2-20.6 26.6-7.4 52.8-16 79.2-24.1 2.5-.8 5.1-1.7 7.6-2.3 2.9-.7 4.2 1.1 5 3.6-.2.6-.5 1.1-1 1.5-3.3.8-5 2.9-5.1 6.2-.9 1.3-1.8 2.5-2.8 3.8-4.2 1.3-6.9 3.9-7.1 8.5-.3.6-.7 1.1-1.2 1.5-3.9 1.5-6.6 4-6.8 8.4-.9 1.2-1.8 2.4-2.8 3.6-4.3 1.2-6.9 3.8-7.2 8.3l-3 3.6c-4.7 2-8.3 4.9-9 10.4l-4.8 5.7c-4.3 1.2-7 3.8-7.2 8.5-1.7 1.8-3.3 3.7-5 5.5-6.1 3.2-11.3 7.2-13.1 14.4-1.7 3.1-4.2 5.5-6.9 7.6-6.8 3.8-12.6 8.5-15.1 16.3-5.4 5.8-10.8 11.7-16.4 17.4-14.9 15.2-29.7 30.4-45.7 44.5-7.7 2.7-12.6 8.3-16.2 15.3-2.3 2.6-4.7 5.1-7.8 6.8-6.2 1.4-9.8 5.7-12.2 11.3-2.4 2.5-4.5 5.2-7.7 6.8-5.4.7-8.3 4.3-10.3 8.9-1.7 2-3.4 3.9-5.8 5.1-4.4.5-6.9 3.2-8.3 7.2-.8 1.5-2.1 2.4-3.7 2.8-2.2.2-3.6 1.3-4.2 3.5-2 2.8-4.4 5.2-7.7 6.5-3.3.1-5.4 1.8-6.2 5-1.7 2-3.5 3.8-5.9 4.9-2.2.2-3.6 1.3-4.1 3.4-1.2.9-2.5 1.8-3.7 2.7-4.4.2-7 2.8-8.4 6.8-.5.4-1.1.8-1.6 1.2-3.3 0-5.5 1.7-6.4 4.9-.5.4-1.1.8-1.6 1.2-3.5 0-5.6 1.8-6.4 5.2-.4.5-.8.8-1.4.9-3.6-.2-5.7 1.7-6.7 5-.8 1.4-2 2.4-3.6 2.8-2.1.1-3.6 1-4.2 3.1-.4.5-.9.8-1.5 1-3.6-.1-5.7 1.6-6.5 5.1-.4.5-.8.8-1.4.9-3.5-.2-5.7 1.5-6.6 4.8-.4.5-.9.9-1.6 1.1-3.3-.1-5.5 1.5-6.5 4.6-.6.4-1.1.8-1.7 1.3-4.6.8-8.2 2.9-10.2 7.3-1.3.9-2.5 1.8-3.8 2.7-2.1 0-3.6.9-4.3 3-2.2 2.2-4.5 4.2-7.6 5.1-5.5.9-9.9 3.5-12.5 8.6-.6.4-1.2.8-1.8 1.3-6 1.2-11 3.8-14.1 9.3-2.3 2-4.6 4-7.6 4.9-2.2 0-3.7.8-4.4 3-.4.5-1 .8-1.7 1-6.2.8-11.1 3.7-14.3 9.1-.5.5-1 .7-1.7.8-2.1 0-3.6.8-4.3 2.8l-1.8 1.2c-2 .1-3.4.9-4.2 2.8-1.9 1.1-3.8 2.2-5.6 3.3-2 0-3.6.8-4.4 2.7-1.5 1.7-3.4 2.7-5.6 3.3-2.1-.1-3.6.7-4.4 2.7-1.9 1.1-3.8 2.2-5.7 3.2-2 0-3.5.8-4.3 2.7-1.9 1.1-3.9 2.2-5.8 3.2-10.2 2.3-18.5 8-26.2 14.9-1.6 1.7-3.6 2.6-5.8 3.1-6.8.5-11.9 3.8-16.2 8.9-1.1.5-2.1 1-3.2 1.5-4.7-.1-8.6 1.5-10.8 5.9-1.2.6-2.4 1.2-3.6 1.9-3.7-.4-6.9.4-8.4 4.3-1.2.6-2.4 1.2-3.6 1.7-3.7-.4-6.9.4-8.4 4.3-1.2.6-2.4 1.2-3.6 1.7-3.7-.4-6.9.4-8.4 4.3-1.2.6-2.4 1.2-3.6 1.7-7.2.8-13.6 3.1-18.4 9-1.1.4-2.2.9-3.2 1.3-5.2.1-9.5 2-12.8 6.1-1.2.5-2.5 1.1-3.7 1.6-2.6-.2-5-.1-6.3 2.8-1.1.5-2.2.9-3.4 1.4-2.4-.3-4.6.4-6.8 1.4-19.7 8.6-39.3 17.5-59.7 24.5-2 .7-3.4 2-4.3 3.9-1.9.7-3.8 1.3-5.7 2-1.6.1-3.4-.1-4.8.4-11.4 4-22.4 9-34.1 12.1-1.6.4-2.6 1.9-3.4 3.4-1.4.4-2.9.7-4.3 1.1-5.3-.5-10 1-13.6 5-1.4.4-2.9.7-4.3 1.1-5.4-.8-10 .8-13.7 4.9-1.5.4-2.9.7-4.4 1.1-10.3-.1-19 5.9-28.9 7.5-1.9.3-3.5 1.6-4.7 3.3-1.1.1-2.2.2-3.3.4-6.6.9-13.3 1.2-18.7 5.9-1.5.3-2.9.6-4.4.9-5.8-.4-11.4.3-15.6 4.9-2.1.4-4.2.7-6.4 1.1-6.5-.5-12.4 1-17.6 4.9-1.1.1-2.2.2-3.3.2-7.4.1-14.5 1.2-20.7 5.7-2.1.3-4.3.7-6.4 1-7-.2-14-.5-19.6 4.9-2.2.3-4.3.6-6.5.8-8.2-.1-16.2 1-23.5 5.3-2.2.2-4.4.5-6.5.7-8.8.2-17.6.5-25.5 5.3-2.2.2-4.4.4-6.6.7-8.9-.4-17.6 1.1-26.3 2.8-2 .4-3.9.9-5.1 2.7-2.2.2-4.4.4-6.6.5-10.8 0-21.6.7-32.2 3.3-1.2.3-2.1 1.4-3.2 2.2-3.5 1.1-7 .9-10.5.7-11.2-1.6-22.2 1.1-33.3 2.1-4 .3-8.8-.4-12.2 3.2-4.9.6-9.7 1.3-14.6.7-3.8-1.7-7.9-1.1-11.8-.9-5.3.3-10.6 1.9-15.8 1.7-19.3-.9-38.4 2.3-57.7 2.2-3.3 0-6.8-.2-8.2 3.9h-70c-1.1-3.6-4.1-4.1-7.2-3.9-16.7.8-33.1-3.2-49.8-2.1-6.6.4-13.2 0-19.9-1.4-4.8-1-9.9-1.5-14.7.7l-16.5-.9c-.8-.6-1.5-1.5-2.4-1.7-12.9-3.3-26.2-2.7-39.2-4.5-1.2-.2-2.5.6-3.8.9-2.9.3-5.8.4-8.6-.6-12-5.2-24.7-4.9-37.4-5.4-2.9.2-5.8.3-8.6-.7-8.6-5.1-18.1-4.9-27.5-5.1-2.9.1-5.7.2-8.5-.9-8-4.2-16.5-5.8-25.4-5.3l-6.6-.6c-6.3-5.4-14.1-4.5-21.6-5-2.1-.3-4.3-.6-6.4-1-6.6-5.8-15.1-4.1-22.7-5.9-1.8-.1-3.6-.3-5.3-.4-4.9-5.1-11.3-4.5-17.5-4.9-2.1-.3-4.3-.7-6.4-1-4.8-5.4-11.4-4.5-17.6-5-1.5-.3-3-.6-4.4-.9-5.1-4.3-11.2-5.2-17.6-5.2-1.5-.3-3-.6-4.4-.8-5.2-3.9-10.8-6.3-17.4-5.4-1.5-.3-3-.5-4.5-.8-3.1-4.1-7.5-4.4-12.2-4-2-.6-3.9-1.2-5.9-1.8-4.1-4.9-9.7-5.3-15.6-5.2-1.5-.3-2.9-.7-4.4-1-3.7-4-8.3-5.5-13.6-5-1.5-.3-2.9-.7-4.4-1-8.5-5.8-17.9-9.3-28.2-10-1.9-.7-3.9-1.3-5.8-2-2.6-3.5-6.1-4.3-10.2-4-1.9-.7-3.9-1.3-5.8-2-2.5-3.4-6.1-4.3-10.1-4.1-2-.7-3.9-1.3-5.9-2-.9-1.9-2.3-3.2-4.3-3.9-16.6-5.5-32.5-13.1-48.7-19.6-5.8-2.3-10.9-6.6-17.6-6.3-1.2-.5-2.3-1-3.5-1.5-6.2-6.3-14.4-8.5-22.6-10.5-1.1-.6-2.3-1.1-3.4-1.7-1.3-2.7-3.6-2.8-6.1-2.6l-3.9-1.8c-1.5-3.7-4.5-4.5-8.1-4.2-1.3-.6-2.6-1.1-3.9-1.7-7-6.9-16.9-8.7-24.7-14.2-2.2-1.6-4.7-2.4-7.4-2.1l-3.9-1.8c-2.2-4.3-6-6-10.7-5.9-1.1-.6-2.3-1.1-3.4-1.7-.9-1.9-2.5-2.6-4.5-2.4-1.2-.6-2.4-1.2-3.5-1.8-2.8-3.4-5.9-6.2-10.7-6-1.1-.6-2.2-1.2-3.3-1.7-1.8-3.4-4.7-4.4-8.3-4.5-.6-.3-1.2-.7-1.7-1-4.8-6-11.4-9-18.7-10.8-1.1-.7-2.2-1.3-3.3-2-.9-1.7-2.3-2.4-4.2-2.3-1.9-1.1-3.9-2.3-5.8-3.4-.8-1.9-2.3-2.6-4.3-2.5-1.9-1.1-3.8-2.2-5.7-3.4-.7-1.9-2.2-2.7-4.1-2.7-2.3-.6-4.3-1.8-5.8-3.7-.9-1.7-2.3-2.4-4.2-2.3-.6-.4-1.2-.8-1.9-1.2-4.6-5.6-10.1-9.7-17.4-11-1.5-1-3-2-4.6-3-.7-2-2.2-2.8-4.3-2.8-2.8-1.2-5.5-2.8-7.7-4.9-2-4.4-5.6-6.5-10.3-7.1-2.8-1.2-5.5-2.8-7.7-4.9-2-4.3-5.6-6.4-10.1-7.2-.6-.4-1.2-.9-1.8-1.3-.7-1.9-2.1-2.7-4.1-2.7-3.2-.9-5.4-3.4-7.8-5.4-1-3-3.1-4.6-6.3-4.5-.6-.4-1.2-.7-1.8-1.1-.6-2.1-2.1-2.9-4.2-3l-1.8-1.2c-.9-3.2-2.9-4.8-6.2-4.8l-1.8-1.2c-.9-3.3-3-4.8-6.4-4.8-.6-.4-1.1-.8-1.7-1.2-.6-2-2-2.9-4-2.9-1.3-1-2.6-2-4-3-.8-3.3-2.9-4.9-6.4-4.8-3.9-1.5-6.8-4.3-9.6-7.2-.6-2-2-2.9-4-3-1.3-1-2.7-2-4-3-.8-3.1-2.8-4.8-6-5-.7-.5-1.3-.9-2-1.4-.9-2.9-2.9-4.4-6-4.7-5.4-4.2-11.3-7.7-16-12.8-.8-3.2-2.8-5-6.1-5.2-1.3-1-2.7-2-4-3.1-.8-3.1-2.7-4.7-5.9-5-2.4-1.3-4.4-3.1-6.1-5.2-1.4-3.8-3.8-6.3-7.9-6.7-2.4-1.2-4.6-2.5-5.9-5-1.3-3.9-3.8-6.5-8-7.1-4.6-3-8.7-6.5-12.2-10.6-.6-3.3-2.6-5-5.9-5.3-5.3-3.6-9.6-8.4-14.1-12.8-4.9-8.2-11-15.2-20-19.1-14.3-11.2-26-25.2-39-37.7-4-3.8-8.5-7.3-11.1-12.5-4.5-9.7-12.4-16.1-20.9-22-9.8-9.3-18.8-19.4-27-30.2-.4-3.2-2.1-5.2-5.3-5.7-3.5-2.8-6.3-6.3-8.7-10.1-.1-2-1.1-3.4-3.1-3.9-3.1-3.2-6.6-6.2-8.9-10.2-.2-2.9-1.7-4.9-4.5-5.9-.5-.7-1-1.3-1.5-2-.3-3.4-2.1-5.3-5.4-6-2.1-1.6-3.6-3.6-4.6-6-.2-2-1.1-3.4-3.1-3.9-2-1.7-3.8-3.6-4.9-6-.2-3.1-1.7-5.1-4.7-6.1-.4-.6-.9-1.2-1.3-1.8-.1-2.2-1.2-3.6-3.4-4.1-1-1.2-1.9-2.4-2.9-3.5.2-3.5-1.5-5.7-4.9-6.5-1.6-2.1-3.2-4.1-4.8-6.2-1-4.4-2.4-8.6-7.5-9.9-1.4-.9-2.3-2.1-2.7-3.7 0-2.1-.9-3.6-3-4.2-1-1.3-1.9-2.6-2.9-3.9-.1-2-1-3.5-3-4.1-.4-.6-.7-1.1-1.1-1.7 0-2.2-1-3.7-3.3-4.2-.9-1.3-1.8-2.5-2.7-3.8 0-2.2-.9-3.7-3.1-4.3-.9-1.3-1.9-2.6-2.8-3.9-.1-2-.9-3.4-2.8-4.1-.4-.6-.8-1.3-1.2-1.9-.1-2-1.1-3.4-3.1-4-.4-.6-.7-1.2-1.1-1.7 0-2.1-.9-3.6-3-4.3-.5-.5-.9-1-1-1.7.1-3.2-1.4-5.3-4.4-6.4-2.4-2.2-4.5-4.6-5.5-7.8 0-2-.9-3.4-2.9-4.1-.4-.6-.8-1.3-1.1-1.9-.1-1.9-.9-3.4-2.8-4.1-1.7-1.5-2.8-3.4-3.4-5.6 0-2.2-.8-3.7-3-4.4-.5-.5-.8-1-1-1.7-.5-4.6-2.8-8.1-6.9-10.3-.3-.6-.7-1.2-1-1.7.1-1.9-.7-3.4-2.5-4.3-3.4-3.3-5.3-7.6-7.5-11.7 0-2-.8-3.6-2.8-4.3-.4-.7-.7-1.3-1.1-2-.4-3.4-1.4-6.5-5-8-1.1-1.9-2.1-3.8-3.2-5.7 0-2.1-.8-3.6-2.8-4.3-1.1-1.9-2.1-3.7-3.2-5.6.1-2.1-.7-3.6-2.7-4.4-1.1-1.9-2.1-3.8-3.2-5.8-.2-3.5-1.3-6.6-4.8-8.2-1.7-1.6-2.8-3.5-3.2-5.7-1-5.7-3-10.8-7.9-14.3-1.9-2.2-3.5-4.7-4.1-7.6-.8-5-2.1-9.6-6.9-12.3-.3-.7-.6-1.3-.9-2-.7-4-2.1-7.6-4.1-11.2-11.7-21.7-22.3-43.9-32.9-66.1-5.5-11.6-8.8-24.4-17.2-34.7l-2.4-5.1c.4-3.7-.8-6.6-3.7-8.9-1.2-1.5-2.1-3.2-2.3-5.1.3-4.5-1.7-8.4-3.3-12.3-9.9-23.8-19.3-47.8-27.8-72.2-1.1-3.1-1.7-6.5-4.9-8.4-.3-1.4-.6-2.8-.9-4.3-1.6-11-4.8-21.5-10.3-31.2-.1-.3-.5-.4-.8-.6-.3-1.4-.6-2.8-.9-4.3-1-12.5-5.4-23.9-10.6-35.2-.1-.3-.5-.4-.8-.6-.2-1.4-.5-2.8-.7-4.2.5-6-.2-11.6-5.1-15.8-.2-1.4-.5-2.9-.7-4.3.9-6.7-.2-12.8-5.4-17.7-.2-1.4-.4-2.9-.5-4.3.6-7.2-.8-13.9-5.4-19.7-.2-1.4-.4-2.9-.6-4.3 0-7.7 0-15.4-5.7-21.7-.1-1.4-.3-2.9-.4-4.3.2-7.7 0-15.4-5.4-21.7-.8-2-.8-4.1-.6-6.3.5-8.4-.6-16.5-5.4-23.7-.8-2.1-.8-4.2-.5-6.3-.3-8.9-.4-17.8-5.3-25.7-1.3-2.7-1.2-5.5-.8-8.3 1.1-10.1-1.7-19.8-3.6-29.6-.2-.8-1.3-1.4-1.9-2.1-.9-2.7-.8-5.5-.5-8.3 1.3-8.8-.8-17.4-2-25.9-.6-3.9.8-8.8-3.4-11.8-1.2-4-.9-8.2-.6-12.3.4-1.2 1.2-2.5 1.1-3.7-1.3-14.3-2.7-28.6-4.2-42.8-.1-1.1-1.4-2.1-2.1-3.2-1.6-7.4-1.1-14.9-.8-22.3.4-1.6 1.4-3.3 1.2-4.7-2.1-13.2-1.9-26.4-2-39.7 0-2.6-1.3-4.4-3.8-5.2v-100c4.2-1.3 3.9-4.9 3.9-8.2.2-10.3-.4-20.6 1.8-30.8.7-3.5.9-7.3-1.2-10.7-.1-6.8-.7-13.5.7-20.2 1.8-1.2 2.5-2.9 2.6-5 .9-14.1 1.9-28.1 3.9-42 .2-1.5-.7-3.1-1.1-4.7-.3-4.1-.7-8.2.7-12.2 5.4-11.4 4.9-23.7 5.1-35.9-.1-3.4-.2-6.8.8-10.2 5.2-9.3 5.4-19.5 5.3-29.8-.2-2.8-.3-5.5.7-8.2 5.3-7.9 5.5-16.8 5.2-25.9-.1-2.8-.1-5.5.9-8.1 4.7-7.3 5.7-15.3 5.4-23.8-.2-2.1-.2-4.2.6-6.2 4.1-6 5.5-12.7 5.1-19.9.2-2 .5-4.1.7-6.1 4.3-5.9 5.7-12.7 5.3-19.9.3-2 .6-4.1.9-6.1 4.6-5.1 5.3-11.4 5.1-17.9.3-2 .6-4.1 1-6.1 3.5-4.7 6-9.8 5-15.9.3-2 .7-4.1 1-6.1 3.6-4.7 5.8-9.8 5.1-15.8.2-1.4.5-2.8.7-4.1 3.7-4.7 6-9.8 5.2-15.9.2-1.4.5-2.8.7-4.1 3.9-4.6 6-9.7 5.4-15.8l.9-4.2c4.1-3.7 5.7-8.4 5-13.9.3-1.4.6-2.8 1-4.1 6.4-8.4 8.5-18.4 10.2-28.5.5-1.8 1.1-3.7 1.6-5.5 3.8-2.6 4.6-6.4 4.3-10.6.5-1.8 1.1-3.6 1.6-5.4 6.3-7.7 8.6-17 10.4-26.5.5-3.5 1.7-6.8 3.9-9.5 1-1.3 2.3-2.4 3-3.9 6.5-15.1 13.1-30.2 19.3-45.5 2.1-5.1 6-9.7 5.5-15.7.7-1.6 1.5-3.3 2.2-4.9 1.6-1.1 2.2-2.6 2.1-4.5.4-1.2.9-2.3 1.3-3.5 5.2-4.5 7.6-10.3 8.4-16.9.3-1 .6-2.1 1-3.1 2.5-.9 3.3-2.7 2.9-5.1 1-2.3 2.1-4.6 3.1-6.9 2.5-.9 3.3-2.7 2.9-5.1 1-2.3 2.1-4.6 3.1-6.9 2.5-.9 3.3-2.7 2.9-5.1 1-2.3 2.1-4.6 3.1-6.9 2.5-.9 3.3-2.7 2.9-5.1.4-.9.8-1.9 1.3-2.8 5.8-4 7.7-10.2 9.1-16.6.5-1.1 1-2.3 1.5-3.4 1.8-.9 2.6-2.4 2.6-4.4.1-.6.3-1.2.7-1.6 2.4-.8 3.2-2.6 3-5 .5-1 1-1.9 1.6-2.9 2-.9 2.7-2.6 2.6-4.7 1.6-3.1 3.3-6.2 4.9-9.4 6.6-6.2 11-13.7 13.2-22.4.4-2.2 1.6-4 3.3-5.6 1.9-.9 2.7-2.4 2.7-4.5.1-.6.4-1.1.8-1.6 3.8-1.5 4.8-4.7 5.2-8.4.4-2.2 1.5-4.1 3.2-5.6 6.8-5.2 10.5-12.4 12.8-20.4.1-.6.3-1.2.7-1.6 2.2-.7 3.2-2.3 3.2-4.5 1.8-4.2 4.1-8 7.1-11.5 4.8-1.8 6.3-5.8 6.9-10.4 1.7-2.5 3.4-5.1 5.1-7.6 4.8-1.8 6.3-5.8 6.9-10.4.9-1.2 1.8-2.4 2.6-3.7 4.3-2.2 6.6-5.8 7.3-10.5.2-.6.5-1.1 1-1.5 2-.8 3-2.3 3.1-4.4 1.6-3.6 3.9-6.7 6.6-9.6 2.2-.7 3.3-2.2 3.4-4.4.9-1.2 1.7-2.5 2.6-3.7 2.3-.7 3.3-2.2 3.3-4.6.1-.6.4-1 .8-1.4 5.6-2.2 7.8-7 9.3-12.3.9-1.2 1.7-2.5 2.6-3.7 2.3-.6 3.3-2.2 3.3-4.4.9-1.2 1.8-2.4 2.7-3.5 3.5-.8 5.2-3 5.3-6.6 1.8-4.7 5.6-7.8 8.8-11.4 2.1-.7 3.2-2.1 3.3-4.3 1-2.3 2.4-4.2 4.6-5.6 3.4-.9 5.3-3 5.3-6.7.1-.6.5-1 .9-1.4 3.2-.9 5-2.9 5.2-6.2 1.1-2.3 2.7-4.2 4.7-5.8 3.3-.8 5.1-3 5.2-6.4 1.6-3 4.1-5.3 6.5-7.6 3.5-.8 5.3-2.9 5.4-6.5.2-.6.5-1.1 1-1.5 5.4-2.6 9.7-6.1 11.1-12.4 1.5-3.1 4-5.4 6.5-7.7 4.4-1.2 7.1-3.8 7.4-8.5 3.9-4.7 7.5-9.7 12.5-13.4 5.8-2.5 10.5-6 11.4-12.8 3.5-3.7 7-7.5 10.5-11.2 3.2-.5 5.2-2.7 7.3-4.8l46.2-46.2c1.9-1.9 3.7-3.8 4.3-6.5 3.6-3.8 6.8-8 11.4-10.8 5.8-.7 8.8-4.4 10.5-9.5 4-4.7 8.3-9 13.5-12.5 5.6-.7 8.6-4.3 10.6-9.2 1.5-2 3.3-3.6 5.5-4.8 5.6-.9 8.7-4.4 10.5-9.5.8-1.3 1.9-2.2 3.3-2.6 4.7-.2 7.3-3 8.7-7.3 1.3-2.2 3.2-3.6 5.4-4.7 3.6-.1 5.7-1.8 6.6-5.3 1.2-.9 2.3-1.8 3.5-2.7 4.6-.4 7.3-3 8.5-7.3.3-.4.8-.7 1.3-.8 3.7 0 5.8-1.8 6.7-5.4 1.8-1.5 3.7-3 5.5-4.5 3.4-.1 5.5-1.8 6.5-4.9.4-.5.8-.9 1.4-1.1 3.5-.1 5.7-1.9 6.5-5.4.3-.4.7-.7 1.2-.8 3.7.1 5.9-1.6 6.8-5.1.3-.4.6-.7 1.1-.9 9.2-3.6 17-9 22.9-17.1.3-.5.7-.7 1.3-.9 3.5.1 5.7-1.6 6.8-4.9.4-.5.9-.8 1.5-1 3.4-.1 5.5-1.8 6.5-5 .4-.5.9-.8 1.6-1 2.2-.1 3.7-1.1 4.4-3.2.4-.5.8-.8 1.4-.9 8.1-1.7 14-6.4 18.6-13 .4-.5.9-.8 1.5-1 2.2-.1 3.8-1.1 4.5-3.2.4-.4.9-.7 1.5-.8 4.7-.6 8.8-2.1 10.5-7.1.4-.5.8-.8 1.4-.9 2.2 0 3.8-1 4.6-3.2.4-.4.9-.7 1.5-.8 8-2.6 15.7-5.7 20.5-13.3.4-.4.8-.7 1.4-.8 3.5 0 6.3-1.8 9.1-3.6 15.4-9.9 31.1-19.1 46.9-28.3 4.5-2.6 9.9-4.1 12.6-9.3.4-.4.9-.7 1.4-.8 7.7-2.2 15.3-4.6 20.5-11.4.3-.4.8-.7 1.3-.7 10.6-2.2 19.6-8.3 29-13.2 41.6-21.7 84.2-41.3 127.7-59.2 24.7-10.1 49.7-19.1 74.6-28.6 3.1-1.2 7.5-4.6 10-.9 2.6 3.8-2.4 6.2-4.5 8.9-16.8 22.3-33.1 45-48.9 68-19.4 28.3-38.2 56.9-55.5 86.5-16.2 27.9-32 56-46.6 84.8-13.1 25.8-25.8 51.8-37.9 78.1-14 30.5-26.5 61.8-38.2 93.2-9.9 26.5-19.4 53.1-27.6 80.1-5.5 18.1-11 36.2-15.9 54.5-4.8 18-9.6 36-13.8 54.1-5.7 24.3-10.7 48.7-15.6 73.1-3.4 16.9-6.5 33.9-9.1 51-2.7 17.7-4.8 35.5-7 53.3-1.9 15.8-3.5 31.7-5.4 47.5-1.2 10.2-1.9 20.6-2.1 30.8-.4 21.3-2.2 42.5-3 63.8-.8 22.3-2.7 44.6-1.1 66.8 1.5 21.2-.1 42.6 3.3 63.7.4 2.3.2 4.7.2 7 0 24.6 3.4 49 5.3 73.5 1.6 21.2 4.8 42.3 7.3 63.4 2.8 23.7 8 47.2 12.2 70.8 5 28.2 11.2 56.1 18.1 83.8 8.4 33.5 18 66.7 28.1 99.8 10 32.8 22.5 64.6 33.8 96.8 7 20 16.1 39.4 24.6 58.9 8.9 20.4 18 40.8 27.7 60.8 8.2 17.1 17.3 33.7 25.9 50.6 1.6 3.2 4.2 6.3 1.8 10.2-2.3-2-4.7-3.8-6.8-5.9-80.6-80.6-161.6-160.7-241.6-241.9-43.7-44.3-116.6-44.4-159.5 0-40.8 42.2-41.7 112.1-.2 153.6 221.7 221.8 443.4 443.5 665.2 665.2 4.5 4.5 9.3 8.6 14.5 12.2 42.6 28.9 102.8 24.8 140.5-13.3 16.3-14 31.4-28.5 46.4-43.2z" style="fill:#a5d76e"/><path class="st2" d="M2799.3 2663.9c1.7-1.8 3.3-3.7 5-5.5 3.3-2 6.5-4.2 7.2-8.5l4.8-5.7c4.3-2.4 7.8-5.4 9-10.4l3-3.6c3.6-1.7 6.1-4.4 7.2-8.3.9-1.2 1.8-2.4 2.8-3.6 3.4-1.9 6.4-4.1 6.8-8.4.6-.4 1-.9 1.2-1.5 3.5-1.8 6.3-4.3 7.1-8.5.9-1.3 1.8-2.5 2.8-3.8 2.9-1.1 4.7-3.1 5.1-6.2.5-.4.8-.9 1-1.5 2.7-1 4.2-3.2 5.8-5.3 32.5-43.1 63.4-87.3 92.2-133 31.5-49.9 59.9-101.6 85.6-154.7 22.7-46.8 42.8-94.7 60.6-143.6 18.6-50.7 34.6-102.2 48-154.5 15.1-59.1 26.8-118.9 34.9-179.4 3.9-29.7 7.1-59.5 9.3-89.4 1.9-25.9 3.7-51.8 3.8-77.8 0-2.4.5-4.6 1.5-6.8v1560H1686c.9-2.7 3.3-3 5.6-3 4.3-.1 8.6.3 12.8-.3 9-1.2 18.4.5 27-3.6 4.9.6 9.8-.1 14.6-.7 7.8 1.1 37.9-2 44.8-4.6.3-.1.5-.5.7-.7 3.5.2 7.1.4 10.5-.7 11.8.3 23.4-1.3 34.7-4.7.3-.1.5-.4.7-.7 2.2-.2 4.4-.4 6.6-.5 10.8.1 21.4-.7 31.4-5.5l6.6-.6c8.8-.1 17.6-.5 25.5-5.3 2.2-.2 4.4-.5 6.5-.7 8.2 0 16.2-.8 23.5-5.3 2.2-.3 4.3-.6 6.5-.8 6.9-.3 13.7-.9 19.6-4.9 2.1-.3 4.3-.7 6.4-1 7.3-.3 14.5-1.1 20.7-5.7 1.1-.1 2.2-.2 3.3-.2 6.4.3 12.4-1 17.6-4.9 2.1-.4 4.2-.7 6.4-1.1 5.6-.4 11.2-.9 15.6-4.9 1.5-.3 2.9-.6 4.4-.9 6.8 0 13.3-1.3 18.7-5.9 1.1-.1 2.2-.2 3.3-.4 11.8-1.9 23.1-4.9 33.6-10.8 1.5-.4 2.9-.7 4.4-1 5-.5 10.1-.6 13.7-4.9 1.4-.4 2.9-.7 4.3-1.1 5.1-.2 9.9-1.2 13.6-5.1 1.4-.4 2.9-.7 4.3-1.1 10-1.1 18.8-6 28.1-9.3 4.9-1.8 10.4-2.4 14.2-6.6 1.9-.7 3.8-1.3 5.7-2 1 0 2.1.3 2.9 0 20.7-8.6 41.5-17.2 62.2-25.8 2.2-.9 4.1-2.1 5.6-4 1.1-.5 2.2-.9 3.4-1.4 2.5 0 4.9-.3 6.3-2.8 1.2-.5 2.5-1.1 3.7-1.6 5.1-.3 9.3-2.5 12.8-6.1 1.1-.4 2.2-.9 3.2-1.3 6.5-2.2 13.4-3.7 18.4-9 1.2-.6 2.4-1.2 3.6-1.7 3.7.3 6.3-1.5 8.4-4.3 1.2-.6 2.4-1.2 3.6-1.7 3.7.3 6.3-1.5 8.4-4.3 1.2-.6 2.4-1.2 3.6-1.7 3.7.3 6.3-1.5 8.4-4.3 1.2-.6 2.4-1.2 3.6-1.9 4.6-.2 7.9-2.7 10.8-5.9 1.1-.5 2.1-1 3.2-1.5 6.2-1.4 11.7-4.2 16.2-8.9 2.2-.6 4.2-1.5 5.8-3.1 9.7-3.2 18.4-8.2 26.2-14.9 1.9-1.1 3.9-2.2 5.8-3.2 2.1.1 3.5-.8 4.3-2.7 1.9-1.1 3.8-2.2 5.7-3.2 2.1.1 3.5-.8 4.4-2.7 2.2-.6 4-1.6 5.6-3.3 2.1 0 3.5-.9 4.4-2.8 1.9-1.1 3.8-2.2 5.6-3.3 2.1.1 3.5-.8 4.2-2.8l1.8-1.2c2.1.2 3.5-.9 4.3-2.8.6-.1 1.2-.4 1.7-.8 5.8-1.5 10.5-4.7 14.3-9.1.7-.1 1.2-.5 1.7-1 2.1-.2 3.5-1.2 4.4-3 3-.8 5.3-2.9 7.6-4.9 5.7-1.6 10.4-4.6 14.1-9.3.6-.4 1.2-.8 1.8-1.3 5.3-1.2 9.4-4.2 12.5-8.6 3.1-.9 5.4-2.9 7.6-5.1 2.1 0 3.4-1.2 4.3-3 1.3-.9 2.5-1.8 3.8-2.7 4.4-1.1 8.1-3.1 10.2-7.3.6-.4 1.1-.8 1.7-1.3 3.2 0 5.1-1.9 6.5-4.6.6-.2 1.1-.6 1.6-1.1 3.2-.2 5.1-2.2 6.6-4.8.6-.1 1.1-.5 1.4-.9 3.3-.3 5.1-2.4 6.5-5.1.6-.2 1.1-.5 1.5-1 2.2 0 3.5-1.2 4.2-3.1 1.6-.4 2.8-1.4 3.6-2.8 3.2-.4 5.2-2.4 6.7-5 .6-.1 1.1-.5 1.4-.9 3.2-.4 5-2.5 6.4-5.2.5-.4 1.1-.8 1.6-1.2 3.3-.1 5.1-2.1 6.4-4.9.5-.4 1.1-.8 1.6-1.2 4.1-.6 6.5-3.4 8.4-6.8 1.2-.9 2.5-1.8 3.7-2.7 2.1-.3 3.4-1.5 4.1-3.4 2.4-1.2 4.2-2.9 5.9-4.9 3.3-.2 5.1-2.2 6.2-5 3.3-1.3 5.7-3.7 7.7-6.5 2.1-.3 3.5-1.4 4.2-3.5 1.6-.4 2.9-1.4 3.7-2.8 4.2-.8 6.5-3.6 8.3-7.2 2.4-1.2 4.2-3 5.8-5.1 4.9-1.2 8-4.6 10.3-8.9 3.2-1.5 5.3-4.3 7.7-6.8 5.4-2.3 9.5-6.1 12.2-11.3 3.1-1.6 5.5-4.1 7.8-6.8 7.1-3.3 11.9-9 16.2-15.3 16-14.1 30.8-29.3 45.7-44.5 5.6-5.7 10.9-11.6 16.4-17.4 6.2-4.4 12-9 15.1-16.3 2.7-2.2 5.2-4.5 6.9-7.6 5.5-3.5 10.2-8 13-14.3zM36.7 1927.7c-.2 2.1-.2 4.2.6 6.3 1.5 7.3 0 15.4 5.4 21.7.1 1.4.3 2.9.4 4.3 1 7.5.7 15.3 5.7 21.7.2 1.4.4 2.9.6 4.3.7 6.9.7 13.9 5.4 19.7.2 1.4.4 2.9.5 4.3.6 6.3.9 12.6 5.4 17.7.2 1.4.5 2.9.7 4.3.6 5.6 1 11.3 5.1 15.8.2 1.4.5 2.8.7 4.2 1 11.8 6.2 22.5 9.3 33.8.2.8 1.4 1.3 2.1 2 .3 1.4.6 2.8.9 4.3-.7 3.1.7 5.9 1.7 8.5 3.1 7.7 3.5 16.6 9.4 23.2.3 1.4.6 2.8.9 4.3-.5 1.7.1 3.2.7 4.8 8.8 23.2 17.3 46.4 26.4 69.4 2.5 6.4 3.9 13.4 8.9 18.7.2 2 1.1 3.6 2.3 5.1-.9 3.9 1.5 6.3 3.7 8.9.8 1.7 1.6 3.4 2.3 5.1-.8 2.5.6 4.5 1.5 6.6 14.3 32.4 29.5 64.4 46.1 95.7 1.8 3.4 2.5 7.7 6.5 9.7.3.7.6 1.3.9 2 1 4.9 2.8 9.2 6.9 12.3.7 2.9 2.2 5.4 4.1 7.6.7 5.9 3.9 10.3 7.9 14.3.4 2.3 1.6 4.2 3.2 5.7 0 3.7 1.8 6.3 4.8 8.2 1.1 1.9 2.1 3.8 3.2 5.8 0 2 .9 3.5 2.7 4.4 1.1 1.9 2.1 3.7 3.2 5.6 0 2.1 1.1 3.4 2.8 4.3 1.1 1.9 2.1 3.8 3.2 5.7.5 3.4 1.7 6.3 5 8 .4.7.7 1.3 1.1 2 0 2 1 3.4 2.8 4.3 2.2 4.1 4.1 8.4 7.5 11.7-.2 2 .6 3.5 2.5 4.3.3.6.7 1.2 1 1.7.9 4.3 2.9 8 6.9 10.3.2.7.5 1.2 1 1.7 0 2.1 1 3.6 3 4.4.6 2.2 1.8 4 3.4 5.6-.2 2.1.9 3.4 2.8 4.1.4.6.8 1.3 1.1 1.9-.1 2.1 1.1 3.3 2.9 4.1.9 3.2 3.1 5.6 5.5 7.8-.4 3.4 2 4.9 4.4 6.4.2.7.5 1.2 1 1.7.1 2.1 1.1 3.5 3 4.3.4.6.7 1.2 1.1 1.7.1 2.1 1.2 3.3 3.1 4 .4.6.8 1.3 1.2 1.9 0 2 .9 3.3 2.8 4.1.9 1.3 1.9 2.6 2.8 3.9.1 2.1 1.2 3.4 3.1 4.3.9 1.3 1.8 2.5 2.7 3.8.3 2 1.4 3.4 3.3 4.2.4.6.7 1.1 1.1 1.7 0 2.1 1 3.4 3 4.1 1 1.3 1.9 2.6 2.9 3.9.1 2.1 1.1 3.5 3 4.2.5 1.6 1.3 2.8 2.7 3.7 1.4 4.1 3.4 7.8 7.5 9.9 1.6 2.1 3.2 4.1 4.8 6.2.3 3.2 2.2 5.1 4.9 6.5 1 1.2 1.9 2.4 2.9 3.5.3 2 1.4 3.4 3.4 4.1.4.6.9 1.2 1.3 1.8 0 3.3 2.1 4.9 4.7 6.1 1.1 2.4 3 4.3 4.9 6 .1 2.1 1.2 3.3 3.1 3.9 1 2.4 2.5 4.4 4.6 6 .6 3 2.6 4.9 5.4 6 .5.7 1 1.3 1.5 2-.2 3.3 1.8 4.8 4.5 5.9 2.3 4 5.7 6.9 8.9 10.2.2 2 1.2 3.3 3.1 3.9 2.4 3.8 5.2 7.2 8.7 10.1.6 3 2.6 4.7 5.3 5.7 8.2 10.8 17.2 20.9 27 30.2 5.3 8.9 12.1 16.4 20.9 22 2.6 5.1 7.1 8.6 11.1 12.5 13.1 12.5 24.7 26.4 39 37.7 5.1 8 11.8 14.3 20 19.1 4.6 4.4 8.8 9.2 14.1 12.8.9 2.9 2.7 4.9 5.9 5.3 3.5 4.2 7.6 7.7 12.2 10.6 1.7 3.5 3.9 6.3 8 7.1 1.3 2.4 3.6 3.8 5.9 5 1.7 3.4 3.7 6.3 7.9 6.7 1.7 2.2 3.7 4 6.1 5.2 1.1 2.7 2.7 4.7 5.9 5 1.3 1 2.7 2 4 3.1 1.2 2.8 3 4.7 6.1 5.2 4.6 5.1 10.6 8.6 16 12.8 1 2.8 2.8 4.7 6 4.7.7.5 1.3.9 2 1.4 1.2 2.6 2.9 4.7 6 5 1.3 1 2.7 2 4 3 .7 1.9 1.9 3 4 3 2.9 2.9 5.7 5.7 9.6 7.2 1.4 2.6 3.2 4.6 6.4 4.8 1.3 1 2.6 2 4 3 .7 1.9 2 3 4 2.9.6.4 1.1.8 1.7 1.2 1.4 2.6 3.1 4.6 6.4 4.8l1.8 1.2c1.3 2.5 3.1 4.6 6.2 4.8l1.8 1.2c.8 1.9 2.1 2.9 4.2 3 .6.4 1.2.7 1.8 1.1 1.4 2.5 3 4.6 6.3 4.5 2.5 2 4.6 4.5 7.8 5.4.8 1.8 2 2.9 4.1 2.7.6.4 1.2.9 1.8 1.3 2.1 4.2 5.9 6 10.1 7.2 2.3 2.1 4.9 3.7 7.7 4.9 2.2 4.1 6 6 10.3 7.1 2.3 2.1 4.9 3.7 7.7 4.9.8 1.9 2.3 2.8 4.3 2.8 1.5 1 3 2 4.6 3 4.8 5.2 10.5 9.1 17.4 11 .6.4 1.2.8 1.9 1.2.8 1.9 2.2 2.6 4.2 2.3 1.5 1.9 3.5 3.1 5.8 3.7.8 1.8 2.2 2.7 4.1 2.7 1.9 1.1 3.8 2.2 5.7 3.4.8 1.9 2.2 2.7 4.3 2.5 1.9 1.1 3.9 2.3 5.8 3.4.8 1.9 2.2 2.6 4.2 2.3 1.1.7 2.2 1.3 3.3 2 5.1 5.5 11.6 8.7 18.7 10.8.6.3 1.2.7 1.7 1 2 2.8 4.7 4.6 8.3 4.5 1.1.6 2.2 1.2 3.3 1.7 2.8 3.4 6 6 10.7 6 1.2.6 2.4 1.2 3.5 1.8.9 1.8 2.4 2.6 4.5 2.4 1.1.6 2.3 1.1 3.4 1.7 3 3 6 6 10.7 5.9l3.9 1.8c9.7 7.4 20.4 12.9 32.1 16.3 1.3.6 2.6 1.1 3.9 1.7 1.9 2.9 4.5 4.5 8.1 4.2l3.9 1.8c1.3 2.6 3.6 2.9 6.1 2.6 1.1.6 2.3 1.1 3.4 1.7 6.6 5.5 14.5 8.3 22.6 10.5 1.2.5 2.3 1 3.5 1.5 2.1 2.7 5.3 3.9 8.3 5.1 13 5.6 25.9 11.5 39.2 16.5 7.6 2.9 14.7 7.3 23.1 8.1 2 .7 3.9 1.3 5.9 2 2.6 3.2 6.1 4.2 10.1 4.1 1.9.7 3.9 1.3 5.8 2 2.7 3.1 6.2 4.2 10.2 4 1.9.7 3.9 1.3 5.8 2 8.7 5.4 18.2 8.2 28.2 10 1.5.3 2.9.7 4.4 1 3.7 3.9 8.6 4.7 13.6 5 1.5.3 2.9.7 4.4 1 4.4 4 9.8 5.1 15.6 5.2 2 .6 3.9 1.2 5.9 1.8 3.5 3.1 7.7 3.9 12.2 4 1.5.3 3 .5 4.5.8 5.2 3.9 11.1 5.4 17.4 5.4 1.5.3 3 .6 4.4.8 5.2 4 11.2 5.3 17.6 5.2 1.5.3 3 .6 4.4.9 5 4.5 11.5 4 17.6 5 2.1.3 4.3.7 6.4 1 5.1 4.5 11.4 4.1 17.5 4.9 1.8.1 3.6.3 5.3.4 6.6 5.6 14.8 5 22.7 5.9 2.1.3 4.3.6 6.4 1 6.5 4.6 14.2 4.3 21.6 5l6.6.6c7.9 4.4 16.6 5.2 25.4 5.3 2.7 1.1 5.6 1.1 8.5.9 8.6 4.8 18.1 4.6 27.5 5.1 2.8 1.1 5.7.9 8.6.7 12 5 24.7 5.3 37.4 5.4 2.8.9 5.7.9 8.6.6 7.2 3.1 36.5 6.5 45.4 5.3l16.5.9c1.8 1.9 4.1 1.8 6.4 2 9.8.9 19.7 1.7 29.6 1.7 3.4 0 7.5-1.2 9.6 3.1H2.3v-1502c1.5-.8 3.1-.7 4.7-.4-.3 7.5-.9 14.9.8 22.3-.8 6.1 2.3 42.9 4.1 48.1.2.6.8 1.1 1.2 1.6-.3 4.1-.6 8.2.6 12.3-.3 11.6 1.7 22.9 3.5 34.3.2 1.2 1.3 2.3 1.9 3.4-.3 2.8-.4 5.6.5 8.3.8 10.7.5 21.7 5.6 31.7-.4 2.8-.5 5.6.7 8.3 1.4 8.6-.2 17.9 5.3 25.7-.3 2.1-.3 4.3.5 6.3.8 8-.2 16.5 5 23.7zM3204 1560c-3-8.1-1.5-16.5-1.7-24.7-1.3-41-5-81.7-9.7-122.4-5-43-11.8-85.7-20.4-128.1-12.1-60.1-27.6-119.4-46.7-177.7-22.4-68.4-49.2-135.1-80.6-200-29.8-61.5-63.3-121-100.7-178.2-39.1-59.7-81.9-116.6-128.5-170.7-38.1-44.2-78.5-86.2-121.1-126C2626.3 368.4 2553 311 2474.5 260c-54.8-35.6-111.5-68-170.2-96.7-57.5-28.1-116.5-52.6-177-73.6-50.1-17.4-100.9-32.3-152.4-44.5-44.1-10.4-88.5-19.1-133.3-25.7-44.8-6.6-89.8-11.6-135-14.4-10.2-.6-20.6.1-30.6-3.1h1528v1558zM178.5 874.1c-1 2.3-2.1 4.6-3.1 6.9-1.7 1.3-2.9 2.9-2.9 5.1-1 2.3-2.1 4.6-3.1 6.9-1.7 1.3-2.9 2.9-2.9 5.1-1 2.3-2.1 4.6-3.1 6.9-1.7 1.3-2.9 2.9-2.9 5.1-.3 1-.6 2.1-1 3.1-4.5 4.8-7.3 10.5-8.4 16.9-.4 1.2-.9 2.3-1.3 3.5-1.9.9-2.7 2.4-2.1 4.5-.7 1.6-1.5 3.3-2.2 4.9-3.2 2.6-4.4 6.5-6 10.1-5.4 12.4-10.8 24.8-16 37.3-2.3 5.7-6 11-5.8 17.6-2.3 2.8-3.5 6-3.9 9.5-5.6 8-8.5 17-10.4 26.5-.5 1.8-1.1 3.6-1.6 5.4-3.4 2.7-4.3 6.5-4.3 10.6-.5 1.8-1.1 3.7-1.6 5.5-5.2 8.9-8.5 18.4-10.2 28.5-.3 1.4-.6 2.8-1 4.1-3.8 3.8-4.6 8.8-5 13.9l-.9 4.2c-4.1 4.5-4.8 10.1-5.4 15.8-.2 1.4-.5 2.8-.7 4.1-4.2 4.5-4.7 10.2-5.2 15.9-.2 1.4-.5 2.8-.7 4.1-4.3 4.4-4.5 10.2-5.1 15.8-.3 2-.7 4.1-1 6.1-4.4 4.5-4.3 10.3-5 15.9-.3 2-.6 4.1-1 6.1-4.7 5.1-4.1 11.7-5.1 17.9-.3 2-.6 4.1-.9 6.1-4.5 5.9-4.4 13-5.3 19.9-.2 2-.5 4.1-.7 6.1-4.8 5.8-4.2 13-5.1 19.9-.8 2-.9 4.1-.6 6.2-4.9 7.2-4.6 15.6-5.4 23.8-1 2.6-1 5.4-.9 8.1-4.5 8.1-4.7 17-5.2 25.9-.9 2.7-.9 5.4-.7 8.2-4.9 9.4-4.7 19.7-5.3 29.8-1 3.3-.9 6.7-.8 10.2-3 6.5-5.9 27.4-5.1 35.9-1.4 4-1.1 8.1-.7 12.2-.6 1.2-1.6 2.2-1.8 3.5-2.3 15-3.2 30.2-4.2 45.4-.1 1 .3 1.9.5 2.9-1.4 6.7-.8 13.5-.7 20.2-1.5-.1-3-.2-4.6-.3C2 1002 2 502 2 2h1504c-1.4 2.3-3.8 2.5-6.1 2.6-35.2 2-70.3 5.7-105.3 10.1-37 4.7-73.7 10.9-110.2 18.4-36.2 7.4-72.1 15.8-107.7 25.7-72.5 20.3-143.4 45.1-212.4 75.5-39 17.2-77.3 35.7-114.9 55.8-2.9 1.6-6.1 2.7-8 5.7-.5.1-1 .3-1.3.7-7.8 2-14.7 5.8-20.5 11.4-.6.1-1.1.4-1.4.8-3.6-.1-6.3 2-9.1 3.7-17.7 10.5-35.3 21.1-52.8 31.7-2.5 1.5-5.2 2.9-6.7 5.7-.6.1-1 .4-1.4.8-7.7 3-14.9 6.9-20.5 13.3-.6.1-1.1.4-1.5.8-2.2.1-3.7 1.2-4.6 3.2-.6.2-1.1.5-1.4.9-4.6.8-8 3.3-10.5 7.1-.6.1-1.1.4-1.5.8-2.2.1-3.7 1.2-4.5 3.2-.6.2-1.1.5-1.5 1-7.4 2.6-13.4 7.3-18.6 13-.6.1-1.1.4-1.4.9-2.1.2-3.6 1.2-4.4 3.2-.6.2-1.1.5-1.6 1-3.4.1-5.2 2.2-6.5 5-.6.2-1.1.5-1.5 1-3.4 0-5.3 2.1-6.8 4.9-.5.1-.9.4-1.3.9-8.9 4-16.6 9.6-22.9 17.1-.5.1-.9.4-1.1.9-3.3.4-5.3 2.4-6.8 5.1-.5.1-.9.3-1.2.8-3.3.4-5.2 2.5-6.5 5.4-.6.2-1.1.6-1.4 1.1-3.3.1-5.2 2.2-6.5 4.9-1.8 1.5-3.7 3-5.5 4.5-3.3.4-5.3 2.5-6.7 5.4-.5.1-1 .3-1.3.8-4.1 1-6.7 3.7-8.5 7.3-1.2.9-2.3 1.8-3.5 2.7-3.2.5-5.3 2.4-6.6 5.3-2.1 1.2-4.1 2.5-5.4 4.7-4.2.9-6.7 3.7-8.7 7.3-1.5.4-2.6 1.3-3.3 2.6-4.9 1.6-8.1 5.1-10.5 9.5-2.3 1.1-4 2.8-5.5 4.8-5.1 1.2-8.1 4.9-10.6 9.2-5.1 3.5-9.5 7.8-13.5 12.5-5.1 1.4-7.9 5.4-10.5 9.5-4.6 2.8-7.8 6.9-11.4 10.8-3.3.3-5.1 2.8-7.2 4.9-15.2 15.2-30.4 30.3-45.6 45.5-2.1 2.1-4.5 3.9-5.1 7.1-3.5 3.7-7 7.5-10.5 11.2-4.8 3.4-9.4 6.9-11.4 12.8-5 3.7-8.6 8.7-12.5 13.4-3.5 2-6.6 4.2-7.4 8.5-2.5 2.3-4.9 4.6-6.5 7.7-5 3-9.2 6.6-11.1 12.4-.5.4-.8.9-1 1.5-2.9 1.2-4.9 3.3-5.4 6.5-2.5 2.3-4.9 4.6-6.5 7.6-2.9 1.2-4.9 3.1-5.2 6.4-2 1.6-3.6 3.5-4.7 5.8-2.8 1.2-4.9 2.9-5.2 6.2-.5.3-.8.8-.9 1.4-2.9 1.3-4.7 3.5-5.3 6.7-2.1 1.4-3.6 3.3-4.6 5.6-1.9.8-3.2 2.1-3.3 4.3-3.2 3.6-7 6.7-8.8 11.4-2.8 1.3-4.7 3.4-5.3 6.6-.9 1.2-1.8 2.4-2.7 3.5-1.9.9-3.1 2.3-3.3 4.4-.9 1.2-1.7 2.5-2.6 3.7-4.9 2.8-7.5 7.2-9.3 12.3-.4.4-.7.8-.8 1.4-1.9.9-3.2 2.3-3.3 4.5-.9 1.2-1.7 2.5-2.6 3.7-1.9.9-3.2 2.2-3.4 4.4-2.7 2.8-5 5.9-6.6 9.6-2 .8-3 2.2-3.1 4.4-.5.4-.8.9-1 1.5-4 2.4-6.6 5.8-7.3 10.5-.9 1.2-1.8 2.4-2.6 3.7-3.6 2.6-6.1 5.9-6.9 10.4-1.7 2.5-3.4 5.1-5.1 7.6-3.6 2.6-6.1 6-6.9 10.4-3 3.4-5.3 7.3-7.1 11.5-1.8 1-3 2.4-3.2 4.5-.4.5-.7 1-.7 1.6-6.1 5.7-10.2 12.6-12.8 20.4-1.7 1.5-2.8 3.4-3.2 5.6-3.3 1.8-4.9 4.7-5.2 8.4-.4.4-.7.9-.8 1.6-2 .8-2.9 2.3-2.7 4.5-1.7 1.5-2.8 3.3-3.3 5.6-6.1 6.5-10.4 14-13.2 22.4-1.6 3.1-3.3 6.2-4.9 9.4-2 .9-2.8 2.5-2.6 4.7-.5 1-1 1.9-1.6 2.9-1.7 1.3-2.9 2.8-3 5-.4.5-.7 1-.7 1.6-1.8.9-3 2.2-2.6 4.4-.5 1.1-1 2.3-1.5 3.4-4.9 4.5-7.3 10.4-9.1 16.6-.4.9-.8 1.9-1.3 2.8-1.9.9-3.1 2.4-3.2 4.7z"/><path class="st0" d="M1731.4 3197.1c-8.6 4.2-18 2.4-27 3.6-4.2.6-8.6.1-12.8.3-2.3.1-4.7.3-5.6 3h-48c1.4-4.2 4.9-4 8.2-3.9 19.2.1 38.4-3 57.7-2.2 5.2.2 10.5-1.4 15.8-1.7 3.9-.3 7.9-.9 11.7.9zM1522 3204c-2.2-4.3-6.2-3.1-9.6-3.1-9.9.1-19.7-.8-29.6-1.7-2.3-.2-4.6-.1-6.4-2 4.8-2.2 9.9-1.7 14.7-.7 6.6 1.4 13.2 1.8 19.9 1.4 16.7-1 33.1 2.9 49.8 2.1 3.1-.2 6.1.3 7.2 3.9-15.3.1-30.7.1-46 .1zM2 1502c1.5.1 3 .2 4.6.3 2.1 3.4 1.9 7.2 1.2 10.7-2.2 10.2-1.7 20.5-1.8 30.8-.1 3.3.3 6.9-3.9 8.2-.1-16.7-.1-33.3-.1-50zM6.7 1701.6c-1.6-.4-3.2-.4-4.7.4v-50c2.5.8 3.8 2.6 3.8 5.2.2 13.3-.1 26.5 2 39.7.3 1.5-.7 3.2-1.1 4.7z"/><path d="M1395.6 2353.8c-15 14.7-30.1 29.3-44.8 44.2-37.7 38-97.9 42.2-140.5 13.3-5.3-3.6-10-7.7-14.5-12.2-221.7-221.7-443.5-443.4-665.2-665.2-41.5-41.5-40.6-111.4.2-153.6 42.9-44.4 115.8-44.3 159.5 0 80 81.2 161 161.3 241.6 241.9 2.1 2.1 4.5 3.9 6.8 5.9 4.9 7.3 12.1 12.2 18.2 18.3 101.3 101.4 202.6 202.8 304 304.1 12.8 12.8 10.5 13.3 23.6.2 373.3-373.3 746.7-746.6 1119.9-1120 12.2-12.2 25.4-22.6 41.7-28.5 39.8-14.2 77-8.9 110.2 17.4 27.3 21.6 40.6 50.9 41 85.3.4 29.1-10 54.7-29.9 76.3-2.7 2.9-5.6 5.7-8.5 8.5L1402.2 2346.4c-2.3 2.4-4.4 4.9-6.6 7.4z" style="fill:#fffffe"/><path class="st0" d="M189.9 2352c-3.9-2-4.7-6.3-6.5-9.7-16.6-31.3-31.8-63.3-46.1-95.7-.9-2.1-2.4-4.1-1.5-6.6 8.3 10.3 11.6 23.1 17.2 34.7 10.6 22.2 21.2 44.4 32.9 66.1 1.9 3.6 3.4 7.2 4 11.2zM127.5 2220.8c-4.9-5.3-6.4-12.3-8.9-18.7-9.1-23-17.6-46.3-26.4-69.4-.6-1.6-1.2-3.1-.7-4.8 3.2 1.9 3.8 5.2 4.9 8.4 8.5 24.4 17.9 48.4 27.8 72.2 1.6 4 3.6 7.9 3.3 12.3zM444.3 500.1c.6-3.2 3.1-5 5.1-7.1 15.2-15.2 30.3-30.4 45.6-45.5 2.1-2.1 3.9-4.6 7.2-4.9-.6 2.7-2.4 4.6-4.3 6.5l-46.2 46.2c-2.2 2.1-4.3 4.3-7.4 4.8zM749.5 249.8c1.4-2.8 4.2-4.2 6.7-5.7 17.6-10.6 35.2-21.2 52.8-31.7 2.8-1.7 5.5-3.8 9.1-3.7-2.7 5.1-8.1 6.7-12.6 9.3-15.8 9.1-31.5 18.4-46.9 28.3-2.8 1.7-5.5 3.5-9.1 3.5zM2252.6 3064.5c-1.5 1.8-3.4 3.1-5.6 4-20.7 8.6-41.4 17.2-62.2 25.8-.8.3-1.9 0-2.9 0 .9-1.9 2.3-3.2 4.3-3.9 20.4-7 39.9-16 59.7-24.5 2.1-1 4.3-1.7 6.7-1.4zM1024 3094.2c-8.4-.8-15.5-5.2-23.1-8.1-13.2-5-26.1-10.9-39.2-16.5-3-1.3-6.2-2.4-8.3-5.1 6.7-.3 11.8 4 17.6 6.3 16.3 6.5 32.1 14.1 48.7 19.6 2 .6 3.4 1.9 4.3 3.8zM117.7 1008.1c-.2-6.6 3.4-11.9 5.8-17.6 5.1-12.5 10.6-24.9 16-37.3 1.6-3.6 2.7-7.5 6-10.1.4 6-3.5 10.6-5.5 15.7-6.1 15.3-12.7 30.4-19.3 45.5-.6 1.4-2 2.5-3 3.8zM7.3 1482c-.2-1-.6-2-.5-2.9 1-15.2 1.9-30.3 4.2-45.4.2-1.2 1.2-2.3 1.8-3.5.4 1.6 1.3 3.2 1.1 4.7-2 14-3 28-3.9 42-.2 2.2-1 4-2.7 5.1zM12.7 1773.7c-.4-.5-1-1-1.2-1.6-1.8-5.3-4.9-42-4.1-48.1.7 1 2 2 2.1 3.2 1.5 14.3 2.9 28.6 4.2 42.8.2 1.2-.6 2.4-1 3.7zM1791.5 3191.1c-.2.2-.4.6-.7.7-6.9 2.6-37 5.6-44.8 4.6 3.4-3.5 8.2-2.8 12.2-3.2 11.1-.9 22.1-3.6 33.3-2.1zM1459.9 3196.3c-8.9 1.2-38.2-2.2-45.4-5.3 1.3-.3 2.6-1.1 3.8-.9 13 1.8 26.3 1.2 39.2 4.5.9.3 1.7 1.2 2.4 1.7zM2176.3 3096.3c-3.8 4.2-9.3 4.8-14.2 6.6-9.3 3.4-18.1 8.3-28.1 9.3.7-1.5 1.8-3 3.4-3.4 11.7-3.1 22.7-8.1 34.1-12.1 1.4-.5 3.2-.3 4.8-.4zM18.7 1823.7c-.7-1.1-1.7-2.2-1.9-3.4-1.9-11.4-3.9-22.7-3.5-34.3 4.2 3 2.8 7.8 3.4 11.8 1.2 8.5 3.3 17.1 2 25.9zM78.6 2087.7c-.7-.7-1.9-1.2-2.1-2-3.1-11.3-8.3-21.9-9.3-33.8.3.2.7.3.8.6 5.2 11.2 9.7 22.7 10.6 35.2zM1405.9 3190.5c-12.7-.1-25.4-.4-37.4-5.4 12.7.5 25.5.1 37.4 5.4zM1837.5 3185c-.2.2-.4.6-.7.7-11.3 3.4-22.9 5-34.7 4.7 1.1-.7 2-1.9 3.2-2.2 10.5-2.5 21.3-3.1 32.2-3.2zM13.4 1418.1c-.9-8.4 2.1-29.4 5.1-35.9-.2 12.2.3 24.4-5.1 35.9zM902 3040.5c-11.7-3.4-22.4-8.9-32.1-16.3 2.8-.3 5.2.5 7.4 2.1 7.8 5.5 17.7 7.3 24.7 14.2zM2093.7 3125.4c-10.4 6-21.8 9-33.6 10.8 1.2-1.7 2.8-3 4.7-3.3 9.8-1.6 18.5-7.6 28.9-7.5zM90.6 2123.7c-5.9-6.6-6.2-15.5-9.4-23.2-1-2.6-2.4-5.4-1.7-8.5.3.2.7.3.8.6 5.5 9.6 8.7 20.1 10.3 31.1zM1875.5 3179c-10 4.8-20.6 5.6-31.4 5.5 1.2-1.8 3.1-2.3 5.1-2.7 8.7-1.7 17.4-3.2 26.3-2.8zM24.8 1863.6c-5-10-4.7-20.9-5.6-31.7.7.7 1.8 1.3 1.9 2.1 2.1 9.8 4.8 19.5 3.7 29.6zM447.9 2708c-8.7-5.7-15.6-13.1-20.9-22 8.5 5.9 16.4 12.3 20.9 22zM19.3 1372c.7-10.1.4-20.4 5.3-29.8.1 10.3-.2 20.5-5.3 29.8zM2402.1 2988.2c-7.7 6.7-16.4 11.7-26.2 14.9 7.7-6.9 16-12.6 26.2-14.9zM1359.9 3184.3c-9.4-.5-18.9-.3-27.5-5.1 9.5.2 19 0 27.5 5.1zM1090 3118.3c-9.9-1.9-19.5-4.7-28.2-10 10.3.7 19.7 4.2 28.2 10zM518 2777.3c-8.1-4.8-14.9-11.2-20-19.1 9 3.9 15 10.9 20 19.1zM637.3 327.7c6.3-7.5 14-13.1 22.9-17.1-5.9 8.1-13.7 13.6-22.9 17.1zM1907.5 3173.1c-7.9 4.7-16.6 5.1-25.5 5.3 7.9-4.8 16.7-5.1 25.5-5.3zM25.3 1334.1c.5-8.9.7-17.8 5.2-25.9.2 9 0 18-5.2 25.9zM85.6 1094.1c1.7-10.1 5-19.6 10.2-28.5-1.7 10.1-3.8 20.1-10.2 28.5zM1323.9 3178.3c-8.8-.1-17.5-.8-25.4-5.3 9-.5 17.5 1.1 25.4 5.3zM30.8 1897.6c-5.4-7.8-3.9-17-5.3-25.7 5 8 5 16.9 5.3 25.7zM103.4 1044.1c1.9-9.4 4.9-18.5 10.4-26.5-1.8 9.5-4.1 18.8-10.4 26.5zM36.7 1927.7c-5.2-7.1-4.2-15.7-5.4-23.7 4.8 7.2 5.9 15.3 5.4 23.7zM1937.5 3167.1c-7.2 4.4-15.2 5.3-23.5 5.3 7.3-4.3 15.3-5.4 23.5-5.3zM208.7 818.1c2.7-8.4 7-16 13.2-22.4-2.2 8.8-6.6 16.2-13.2 22.4zM48.8 1981.6c-5-6.4-4.7-14.2-5.7-21.7 5.7 6.3 5.7 14 5.7 21.7zM42.7 1955.7c-5.4-6.3-4-14.4-5.4-21.7 5.4 6.3 5.6 13.9 5.4 21.7zM31.4 1300.1c.8-8.2.5-16.5 5.4-23.8.4 8.4-.7 16.5-5.4 23.8zM727.7 263.9c5.6-6.4 12.8-10.2 20.5-13.3-4.8 7.6-12.5 10.7-20.5 13.3zM1291.9 3172.4c-7.4-.7-15.1-.4-21.6-5 7.5.5 15.3-.4 21.6 5zM1263.9 3166.4c-7.9-.8-16.1-.3-22.7-5.9 7.7 1.8 16.2.1 22.7 5.9zM2702.1 2764.1c-4.3 6.3-9.1 12-16.2 15.3 3.7-7 8.6-12.6 16.2-15.3zM237.1 770.2c2.6-7.8 6.7-14.8 12.8-20.4-2.4 8-6.1 15.1-12.8 20.4zM2779.3 2685.9c-3.1 7.2-9 11.9-15.1 16.3 2.4-7.8 8.3-12.5 15.1-16.3zM819.6 207.9c5.8-5.6 12.7-9.4 20.5-11.4-5.2 6.8-12.8 9.2-20.5 11.4zM950 3063c-8.1-2.2-16-5-22.6-10.5 8.2 2 16.3 4.2 22.6 10.5zM1963.6 3161.3c-5.9 4-12.7 4.7-19.6 4.9 5.6-5.4 12.6-5 19.6-4.9zM683.6 293.9c5.2-5.7 11.2-10.5 18.6-13-4.6 6.6-10.5 11.3-18.6 13zM54.8 2005.6c-4.8-5.7-4.7-12.8-5.4-19.7 4.6 5.8 6 12.5 5.4 19.7zM1990.7 3154.6c-6.1 4.7-13.3 5.4-20.7 5.7 6.2-4.5 13.3-5.6 20.7-5.7zM60.7 2027.7c-4.5-5.1-4.7-11.5-5.4-17.7 5.2 4.8 6.3 10.9 5.4 17.7zM820 2997.3c-7.1-2.1-13.6-5.3-18.7-10.8 7.3 1.8 13.8 4.8 18.7 10.8zM762 2963.1c-6.9-2-12.6-5.8-17.4-11 7.2 1.2 12.8 5.3 17.4 11zM37.4 1270.1c.9-6.8.3-14 5.1-19.9.4 7.2-.9 13.9-5.1 19.9zM2799.3 2663.9c-2.8 6.3-7.5 10.7-13.1 14.4 1.8-7.2 7-11.2 13.1-14.4zM43.2 1244.1c.8-6.9.7-14 5.3-19.9.4 7.2-.9 13.9-5.3 19.9zM2011.7 3149.4c-5.2 3.9-11.2 5.2-17.6 4.9 5.2-3.9 11.1-5.4 17.6-4.9zM2300.4 3042.3c-5 5.2-11.9 6.8-18.4 9 4.7-5.9 11.2-8.2 18.4-9zM1235.9 3160.2c-6.1-.7-12.5-.4-17.5-4.9 6.2.4 12.6-.3 17.5 4.9zM1167.9 3142.5c-6.4-.1-12.3-1.5-17.4-5.4 6.7-1 12.3 1.5 17.4 5.4zM2056.8 3136.6c-5.4 4.6-11.9 5.8-18.7 5.9 5.3-4.7 12.1-5.1 18.7-5.9zM1189.9 3148.4c-6.4.2-12.4-1.1-17.6-5.2 6.4.1 12.5.9 17.6 5.2zM1212 3154.3c-6.1-.9-12.5-.4-17.6-5 6.2.5 12.8-.4 17.6 5zM2370.2 3006.2c-4.5 4.7-10 7.5-16.2 8.9 4.2-5.1 9.4-8.5 16.2-8.9zM1127.9 3130.5c-5.7-.1-11.1-1.2-15.6-5.2 5.9-.2 11.5.3 15.6 5.2zM49.4 1218.1c1.1-6.1.5-12.8 5.1-17.9.3 6.5-.5 12.8-5.1 17.9zM182.7 866.1c1.7-6.2 4.1-12.1 9.1-16.6-1.4 6.4-3.3 12.6-9.1 16.6zM422.4 524.2c2-5.8 6.6-9.4 11.4-12.8-1 6.8-5.7 10.3-11.4 12.8zM384.8 566.2c1.9-5.8 6.2-9.4 11.1-12.4-1.4 6.2-5.7 9.7-11.1 12.4zM151.1 930.1c1.2-6.5 3.9-12.1 8.4-16.9-.7 6.6-3.2 12.4-8.4 16.9zM2678.2 2786.1c-2.7 5.2-6.8 8.9-12.2 11.3 2.3-5.6 5.9-9.9 12.2-11.3zM2033.7 3143.4c-4.5 4-10 4.5-15.6 4.9 4.2-4.6 9.7-5.3 15.6-4.9zM66.5 2047.7c-4.2-4.5-4.5-10.2-5.1-15.8 5 4.3 5.6 9.9 5.1 15.8zM67.4 1152.1c.5-5.7 1-11.4 5.2-15.9.8 6.2-1.5 11.2-5.2 15.9zM73.3 1132.1c.6-5.7 1.3-11.3 5.4-15.8.6 6.1-1.5 11.2-5.4 15.8zM61.5 1172.1c.6-5.6.8-11.4 5.1-15.8.8 6-1.5 11.1-5.1 15.8zM55.5 1194.1c.7-5.6.6-11.4 5-15.9 1 6.1-1.4 11.2-5 15.9zM209.8 2388.2c-4.1-4-7.3-8.4-7.9-14.3 4.9 3.5 6.9 8.7 7.9 14.3zM2111.7 3119.5c-3.6 4.3-8.7 4.4-13.7 4.9 3.7-4.1 8.3-5.7 13.7-4.9zM2492.1 2932.1c-3.7 4.7-8.4 7.7-14.1 9.3 3.2-5.5 8.1-8.1 14.1-9.3zM2464.3 2950.3c-3.9 4.5-8.6 7.6-14.3 9.1 3.2-5.4 8.2-8.3 14.3-9.1zM1108 3124.3c-5-.3-9.9-1.1-13.6-5 5.3-.5 9.9.9 13.6 5zM2506.4 2922.3c-3.1 4.4-7.2 7.4-12.5 8.6 2.7-5.1 7-7.7 12.5-8.6zM2129.6 3113.3c-3.7 3.8-8.5 4.8-13.6 5.1 3.7-4.1 8.3-5.6 13.6-5.1zM79.6 1112.1c.4-5.1 1.2-10 5-13.9.7 5.5-.9 10.2-5 13.9zM310.6 660.1c1.8-5.1 4.4-9.6 9.3-12.3-1.5 5.3-3.7 10.1-9.3 12.3zM2658.2 2804.2c-2.3 4.3-5.4 7.7-10.3 8.9 2-4.7 4.9-8.2 10.3-8.9zM2825.2 2633.9c-1.2 5-4.7 8-9 10.4.7-5.5 4.3-8.4 9-10.4zM553.7 395.9c2.4-4.4 5.6-7.9 10.5-9.5-1.8 5.1-4.9 8.6-10.5 9.5zM537.6 409.9c2.5-4.3 5.4-8 10.6-9.2-2 4.8-5 8.5-10.6 9.2zM513.6 431.8c2.7-4.1 5.4-8.1 10.5-9.5-1.7 5.2-4.8 8.9-10.5 9.5zM197.7 2366.3c-4-3.1-5.9-7.5-6.9-12.3 4.8 2.7 6.2 7.4 6.9 12.3zM2278.8 3052.5c-3.5 3.6-7.7 5.8-12.8 6.1 3.3-4.1 7.6-6 12.8-6.1zM1146 3136.3c-4.5-.1-8.7-.9-12.2-4 4.6-.4 9-.1 12.2 4zM709.7 275.9c2.6-3.8 5.9-6.3 10.5-7.1-1.8 5-5.9 6.5-10.5 7.1zM727.9 2941.4c-4.3-1.1-8-3-10.3-7.1 4.7.6 8.3 2.7 10.3 7.1zM259.7 2470.3c-4-2.3-6-6-6.9-10.3 4.1 2.2 6.4 5.7 6.9 10.3zM709.9 2929.4c-4.3-1.1-8-3-10.1-7.2 4.5.8 8.1 2.9 10.1 7.2zM844 3010.6c-4.7 0-7.9-2.6-10.7-6 4.8-.3 7.9 2.5 10.7 6zM260.9 732.1c.8-4.5 3.3-7.8 6.9-10.4-.5 4.6-2 8.6-6.9 10.4zM866 3022.4c-4.7 0-7.7-2.9-10.7-5.9 4.7 0 8.5 1.6 10.7 5.9zM272.9 714.1c.8-4.4 3.3-7.8 6.9-10.4-.5 4.6-2 8.7-6.9 10.4zM2532.2 2904.2c-2.1 4.2-5.8 6.3-10.2 7.3 2-4.4 5.7-6.5 10.2-7.3zM282.5 700.1c.7-4.7 3.3-8.1 7.3-10.5-.7 4.7-3 8.3-7.3 10.5zM2350.8 3016.5c-2.9 3.2-6.3 5.7-10.8 5.9 2.2-4.4 6-6 10.8-5.9zM327.9 2567.8c-4.1-2.1-6-5.8-7.5-9.9 5.2 1.4 6.6 5.5 7.5 9.9zM1040 3100.3c-4 .1-7.4-.9-10.1-4.1 4-.2 7.6.6 10.1 4.1zM1056 3106.3c-4 .2-7.5-.9-10.2-4 4-.3 7.6.5 10.2 4zM2845 2609.9c-.4 4.3-3.4 6.5-6.8 8.4.2-4.5 2.9-6.9 6.8-8.4zM2835.4 2621.9c-1.1 3.9-3.6 6.6-7.2 8.3.3-4.5 2.9-7.1 7.2-8.3zM2642.1 2818.1c-1.7 3.6-4.1 6.4-8.3 7.2 1.4-4 3.9-6.7 8.3-7.2zM402.4 546.1c.8-4.3 3.9-6.6 7.4-8.5-.3 4.7-3 7.3-7.4 8.5zM2811.4 2650c-.7 4.3-3.8 6.5-7.2 8.5.2-4.8 2.9-7.3 7.2-8.5zM567.5 383.8c2-3.6 4.5-6.4 8.7-7.3-1.4 4.3-3.9 7.1-8.7 7.3zM2598.3 2854.2c-1.9 3.4-4.3 6.2-8.4 6.8 1.4-4 4-6.5 8.4-6.8zM572 2824.8c-4.2-.4-6.2-3.4-7.9-6.7 4.1.5 6.6 3 7.9 6.7zM2853.4 2599.9c-.8 4.1-3.6 6.6-7.1 8.5.2-4.6 2.8-7.2 7.1-8.5zM558.2 2813.2c-4.1-.8-6.3-3.6-8-7.1 4.2.6 6.6 3.2 8 7.1zM591.6 363.9c1.8-3.6 4.4-6.3 8.5-7.3-1.2 4.2-3.9 6.9-8.5 7.3zM97.4 1060.1c.1-4.1 1-7.8 4.3-10.6.3 4.2-.4 8-4.3 10.6zM2324.4 3030.3c-2.1 2.8-4.7 4.6-8.4 4.3 1.5-3.9 4.6-4.7 8.4-4.3zM2312.4 3036.3c-2.1 2.8-4.7 4.6-8.4 4.3 1.5-3.9 4.6-4.7 8.4-4.3zM2336.4 3024.3c-2.1 2.8-4.7 4.6-8.4 4.3 1.5-3.9 4.6-4.7 8.4-4.3zM914 3046.4c-3.6.3-6.2-1.3-8.1-4.2 3.6-.3 6.6.5 8.1 4.2zM237.9 2436c-3.3-1.7-4.5-4.6-5-8 3.6 1.5 4.6 4.5 5 8zM217.8 2402.2c-3-1.9-4.8-4.6-4.8-8.2 3.5 1.6 4.5 4.7 4.8 8.2zM830 3002.8c-3.6.1-6.3-1.7-8.3-4.5 3.5.1 6.5 1.2 8.3 4.5zM133.5 2234.9c-2.2-2.5-4.6-5-3.7-8.9 2.8 2.3 4.1 5.2 3.7 8.9zM228.7 784.1c.3-3.7 1.9-6.5 5.2-8.4-.4 3.7-1.5 6.9-5.2 8.4zM2588.3 2862.2c-1.3 2.7-3.1 4.8-6.4 4.9.9-3.2 3.1-4.9 6.4-4.9zM2580.3 2868.2c-1.3 2.7-3.1 4.8-6.4 5.2.8-3.4 3-5.1 6.4-5.2zM2572.5 2874.3c-1.5 2.7-3.5 4.6-6.7 5 1-3.3 3.1-5.1 6.7-5zM648 2885.2c-3.2-.2-5-2.3-6.4-4.8 3.4-.2 5.5 1.5 6.4 4.8zM2556.5 2886.3c-1.4 2.6-3.3 4.8-6.5 5.1.8-3.5 2.9-5.2 6.5-5.1zM664 2897.1c-3.2-.1-5-2.2-6.4-4.8 3.4 0 5.5 1.5 6.4 4.8zM2548.5 2892.3c-1.5 2.6-3.4 4.6-6.6 4.8 1-3.3 3.1-4.9 6.6-4.8zM672 2903c-3.1-.2-4.9-2.2-6.2-4.8 3.3.1 5.3 1.6 6.2 4.8zM2540.4 2898.3c-1.4 2.7-3.2 4.6-6.5 4.6 1-3.2 3.2-4.7 6.5-4.6zM686 2912.8c-3.3.1-4.9-2-6.3-4.5 3.3-.1 5.3 1.5 6.3 4.5zM337.6 2580.5c-2.6-1.4-4.6-3.3-4.9-6.5 3.4.8 5.1 3 4.9 6.5zM669.7 303.9c1.3-2.8 3.2-4.9 6.5-5-1 3.2-3.2 4.9-6.5 5zM661.4 309.8c1.4-2.8 3.4-4.8 6.8-4.9-1.1 3.3-3.3 5-6.8 4.9zM629.3 333.7c1.5-2.8 3.6-4.8 6.8-5.1-.9 3.5-3.1 5.3-6.8 5.1zM349.9 2596c-2.6-1.2-4.8-2.8-4.7-6.1 2.9 1 4.5 3 4.7 6.1zM621.6 339.9c1.3-2.8 3.2-4.9 6.5-5.4-.8 3.4-2.9 5.3-6.5 5.4zM613.7 345.9c1.3-2.8 3.2-4.8 6.5-4.9-1 3.1-3.2 4.8-6.5 4.9zM601.5 355.8c1.3-2.9 3.3-5 6.7-5.4-.9 3.5-3.1 5.4-6.7 5.4zM581.6 371.8c1.3-2.9 3.3-4.8 6.6-5.3-.9 3.5-3.1 5.3-6.6 5.3zM366.7 588.1c.3-3.3 2.3-5.2 5.2-6.4-.2 3.5-1.9 5.6-5.2 6.4zM350.5 608.2c.6-3.2 2.4-5.4 5.3-6.7 0 3.7-1.9 5.8-5.3 6.7zM328.5 636.1c.5-3.2 2.4-5.2 5.3-6.6 0 3.6-1.8 5.8-5.3 6.6zM378.4 574.1c.6-3.2 2.5-5.2 5.4-6.5 0 3.6-1.9 5.7-5.4 6.5zM367.9 2617.9c-2.8-1.1-4.7-3-5.4-6 3.3.7 5.1 2.7 5.4 6zM373.9 2625.9c-2.7-1.1-4.7-2.6-4.5-5.9 2.8.9 4.3 2.9 4.5 5.9zM400 2655.8c-2.7-1-4.8-2.7-5.3-5.7 3.1.5 4.9 2.5 5.3 5.7zM2861.2 2589.9c-.4 3.1-2.2 5.1-5.1 6.2.2-3.3 1.9-5.4 5.1-6.2zM538 2795.4c-3.2-.4-4.9-2.5-5.9-5.3 3.3.3 5.3 2.1 5.9 5.3zM356.7 600.1c.3-3.3 2.4-5.1 5.2-6.2-.2 3.3-2 5.4-5.2 6.2zM584 2835.1c-3.1-.3-4.8-2.3-5.9-5 3.2.2 5.1 1.9 5.9 5zM594.1 2843.3c-3.1-.5-4.9-2.4-6.1-5.2 3.3.2 5.3 2.1 6.1 5.2zM2618.2 2838.2c-1.2 2.8-3 4.8-6.2 5 .8-3.2 2.8-4.9 6.2-5zM616 2860.8c-3.2 0-4.9-1.9-6-4.7 3.1.2 5.1 1.7 6 4.7zM624 2867.1c-3.1-.3-4.8-2.3-6-5 3.2.2 5.2 1.9 6 5zM283.7 2506.3c-2.4-1.5-4.7-3-4.4-6.4 3 1.1 4.5 3.2 4.4 6.4zM924 3050.8c-2.5.3-4.8-.1-6.1-2.6 2.5-.2 4.8 0 6.1 2.6zM2262.3 3060.2c-1.4 2.5-3.8 2.8-6.3 2.8 1.2-2.8 3.6-3 6.3-2.8zM788 2978.8c-2 .2-3.5-.7-4.3-2.5 2-.1 3.5.6 4.3 2.5zM2422.4 2976.3c-.9 1.8-2.4 2.7-4.4 2.7.8-2 2.3-2.8 4.4-2.7zM798 2984.6c-2 .3-3.4-.5-4.2-2.3 1.9-.1 3.3.5 4.2 2.3zM2412.3 2982.2c-.8 1.9-2.2 2.8-4.3 2.7.8-1.9 2.3-2.7 4.3-2.7zM178.5 874.1c0-2.2 1.3-3.8 2.9-5.1.4 2.4-.4 4.2-2.9 5.1zM193.3 846.1c-.4-2.2.8-3.5 2.6-4.4 0 2-.8 3.5-2.6 4.4zM196.6 840.1c.1-2.2 1.2-3.8 3-5 .2 2.4-.6 4.2-3 5zM201.1 832.1c-.2-2.2.7-3.7 2.6-4.7.1 2.2-.6 3.8-2.6 4.7zM225.1 790.1c-.2-2.2.7-3.6 2.7-4.5 0 2.1-.8 3.6-2.7 4.5zM852 3014.8c-2 .2-3.5-.6-4.5-2.4 2-.2 3.6.5 4.5 2.4zM250.6 748.1c.2-2.1 1.4-3.5 3.2-4.5 0 2.2-1 3.8-3.2 4.5zM290.8 688.1c0-2.2 1.1-3.6 3.1-4.4-.1 2.2-1 3.7-3.1 4.4zM300.5 674.2c.2-2.2 1.5-3.6 3.4-4.4-.1 2.2-1.2 3.7-3.4 4.4zM306.5 666.1c.1-2.3 1.4-3.6 3.3-4.5 0 2.2-1 3.8-3.3 4.5zM322.5 644.1c.2-2.2 1.4-3.6 3.3-4.4 0 2.2-1 3.8-3.3 4.4zM342.6 618.1c.1-2.2 1.4-3.5 3.3-4.3-.1 2.2-1.2 3.7-3.3 4.3zM677.8 297.9c.8-2 2.3-3 4.4-3.2-.8 2.2-2.3 3.1-4.4 3.2zM703.7 279.9c.8-2 2.3-3.1 4.5-3.2-.8 2.1-2.3 3.1-4.5 3.2zM721.6 267.9c.9-2 2.4-3.1 4.6-3.2-.8 2.2-2.4 3.1-4.6 3.2zM385.9 2640c-1.9-.6-2.9-2-3.1-3.9 2 .5 3 1.9 3.1 3.9zM317.7 2554.3c-1.9-.8-3-2.2-3-4.2 2.1.6 3 2 3 4.2zM311.8 2546.1c-1.9-.7-3-2-3-4.1 2 .7 2.9 2.1 3 4.1zM656 2891.1c-2.1 0-3.3-1.1-4-2.9 1.9 0 3.3 1 4 2.9zM307.7 2540.3c-1.8-.8-3-2.2-3.3-4.2 2.3.5 3.3 2 3.3 4.2zM2630.1 2828.1c-.7 2-2.1 3.2-4.2 3.5.6-2.1 2-3.3 4.2-3.5zM2606.1 2848.1c-.7 1.9-2 3.2-4.1 3.4.5-2.1 1.9-3.2 4.1-3.4zM632 2873.1c-2.1 0-3.3-1.1-4-3 2 .2 3.4 1.1 4 3zM251.7 2458.3c-1.9-.8-2.7-2.3-2.5-4.3 1.9.8 2.6 2.3 2.5 4.3zM678 2907.2c-2-.1-3.4-1.1-4.2-3 2.1.1 3.6 1 4.2 3zM241.8 2442.3c-1.8-.9-2.8-2.3-2.8-4.3 2 .7 2.8 2.2 2.8 4.3zM301.7 2532.3c-1.8-.8-2.9-2.2-3.1-4.3 2.2.6 3.1 2.1 3.1 4.3zM343.8 2588.1c-1.9-.7-3.1-2-3.4-4.1 2.2.5 3.3 2 3.4 4.1zM2518.2 2914.2c-.9 1.8-2.2 3-4.3 3 .7-2.1 2.2-3 4.3-3zM698 2920.9c-2.1.2-3.3-.9-4.1-2.7 1.9 0 3.4.8 4.1 2.7zM229.7 2422.3c-1.7-.9-2.8-2.3-2.8-4.3 2.1.7 2.9 2.2 2.8 4.3zM223.7 2412.4c-1.8-.9-2.7-2.4-2.7-4.4 2 .8 2.8 2.3 2.7 4.4zM147.7 938.1c-.7-2.1.1-3.6 2.1-4.5.1 1.9-.5 3.4-2.1 4.5zM160.5 910.1c0-2.2 1.3-3.8 2.9-5.1.4 2.4-.4 4.2-2.9 5.1zM740 2949.1c-2 0-3.5-.9-4.3-2.8 2 0 3.6.7 4.3 2.8zM2470.4 2946.3c-.9 1.9-2.4 2.9-4.4 3 .7-2.2 2.2-3 4.4-3zM166.5 898.1c0-2.2 1.3-3.8 2.9-5.1.4 2.4-.4 4.2-2.9 5.1zM172.5 886.1c0-2.2 1.3-3.8 2.9-5.1.4 2.4-.4 4.2-2.9 5.1zM2448.3 2960.2c-.8 1.9-2.2 2.9-4.3 2.8.8-2 2.3-2.8 4.3-2.8zM768 2966.6c-2 .2-3.4-.5-4.2-2.3 1.9-.1 3.3.5 4.2 2.3zM2442.1 2964.2c-.7 1.9-2.1 2.9-4.2 2.8.8-2 2.3-2.8 4.2-2.8zM2562.2 2882.2c-.8 1.9-2.1 3.1-4.2 3.1.6-2.1 2.1-3 4.2-3.1zM357.9 2605.9c-1.9-.6-3.1-1.8-3.1-3.9 2 .6 2.9 1.9 3.1 3.9zM295.8 2524.1c-1.8-.7-2.8-2.1-2.8-4.1 2 .7 2.8 2.1 2.8 4.1zM291.9 2518c-1.8-.7-3-2-3.1-4 2 .6 2.9 2 3.1 4zM287.7 2512.3c-1.9-.8-3-2.2-3-4.3 2.1.7 3 2.2 3 4.3zM2432.3 2970.3c-.8 1.9-2.3 2.8-4.4 2.8.8-2.1 2.4-2.9 4.4-2.8zM273.8 2492.1c-1.8-.8-2.9-2-2.9-4.1 2 .7 2.9 2.1 2.9 4.1zM269.9 2486.1c-1.9-.7-2.9-2-2.8-4.1 1.8.7 2.7 2.1 2.8 4.1zM263.7 2476.4c-1.9-.8-2.9-2.3-3-4.4 2.2.7 3 2.2 3 4.4zM778 2972.9c-2 0-3.4-.8-4.1-2.7 1.9 0 3.4.8 4.1 2.7z"/></svg>